<svg width="14" height="12" viewBox="0 0 14 12" fill="none" xmlns="http://www.w3.org/2000/svg">
<path fill-rule="evenodd" clip-rule="evenodd" d="M13.7143 6C13.7143 6.22729 13.624 6.44527 13.4633 6.60598C13.3025 6.7667 13.0845 6.85699 12.8572 6.85699H2.92749L6.60765 10.5352C6.68734 10.6149 6.75055 10.7095 6.79367 10.8136C6.8368 10.9177 6.85899 11.0292 6.85899 11.1419C6.85899 11.2546 6.8368 11.3662 6.79367 11.4703C6.75055 11.5744 6.68734 11.669 6.60765 11.7487C6.52797 11.8284 6.43337 11.8916 6.32925 11.9347C6.22514 11.9778 6.11355 12 6.00086 12C5.88817 12 5.77658 11.9778 5.67247 11.9347C5.56836 11.8916 5.47376 11.8284 5.39407 11.7487L0.25179 6.60675C0.171976 6.52714 0.108652 6.43257 0.0654459 6.32845C0.0222397 6.22434 0 6.11272 0 6C0 5.88728 0.0222397 5.77566 0.0654459 5.67154C0.108652 5.56743 0.171976 5.47286 0.25179 5.39325L5.39407 0.251323C5.555 0.0904038 5.77327 0 6.00086 0C6.22845 0 6.44672 0.0904038 6.60765 0.251323C6.76858 0.412243 6.85899 0.630497 6.85899 0.858071C6.85899 1.08565 6.76858 1.3039 6.60765 1.46482L2.92749 5.14301H12.8572C13.0845 5.14301 13.3025 5.2333 13.4633 5.39402C13.624 5.55473 13.7143 5.77271 13.7143 6Z" fill="black"/>
</svg>
