<svg width="129" height="20" viewBox="0 0 129 20" fill="none" xmlns="http://www.w3.org/2000/svg">
<path d="M0.66 0.999999H3.9V12.36H10.92V15H0.66V0.999999ZM22.9722 9.66C22.9722 9.7 22.9522 9.98 22.9122 10.5H14.7722C14.9189 11.1667 15.2655 11.6933 15.8122 12.08C16.3589 12.4667 17.0389 12.66 17.8522 12.66C18.4122 12.66 18.9055 12.58 19.3322 12.42C19.7722 12.2467 20.1789 11.98 20.5522 11.62L22.2122 13.42C21.1989 14.58 19.7189 15.16 17.7722 15.16C16.5589 15.16 15.4855 14.9267 14.5522 14.46C13.6189 13.98 12.8989 13.32 12.3922 12.48C11.8855 11.64 11.6322 10.6867 11.6322 9.62C11.6322 8.56667 11.8789 7.62 12.3722 6.78C12.8789 5.92667 13.5655 5.26667 14.4322 4.8C15.3122 4.32 16.2922 4.08 17.3722 4.08C18.4255 4.08 19.3789 4.30667 20.2322 4.76C21.0855 5.21333 21.7522 5.86667 22.2322 6.72C22.7255 7.56 22.9722 8.54 22.9722 9.66ZM17.3922 6.44C16.6855 6.44 16.0922 6.64 15.6122 7.04C15.1322 7.44 14.8389 7.98667 14.7322 8.68H20.0322C19.9255 8 19.6322 7.46 19.1522 7.06C18.6722 6.64667 18.0855 6.44 17.3922 6.44ZM36.1494 4.24V13.2C36.1494 15.1733 35.636 16.64 34.6094 17.6C33.5827 18.56 32.0827 19.04 30.1094 19.04C29.0694 19.04 28.0827 18.9133 27.1494 18.66C26.216 18.4067 25.4427 18.04 24.8294 17.56L26.0694 15.32C26.5227 15.6933 27.096 15.9867 27.7894 16.2C28.4827 16.4267 29.176 16.54 29.8694 16.54C30.9494 16.54 31.7427 16.2933 32.2494 15.8C32.7694 15.32 33.0294 14.5867 33.0294 13.6V13.14C32.216 14.0333 31.0827 14.48 29.6294 14.48C28.6427 14.48 27.736 14.2667 26.9094 13.84C26.096 13.4 25.4494 12.7867 24.9694 12C24.4894 11.2133 24.2494 10.3067 24.2494 9.28C24.2494 8.25333 24.4894 7.34667 24.9694 6.56C25.4494 5.77333 26.096 5.16667 26.9094 4.74C27.736 4.3 28.6427 4.08 29.6294 4.08C31.1894 4.08 32.376 4.59333 33.1894 5.62V4.24H36.1494ZM30.2494 11.92C31.076 11.92 31.7494 11.68 32.2694 11.2C32.8027 10.7067 33.0694 10.0667 33.0694 9.28C33.0694 8.49333 32.8027 7.86 32.2694 7.38C31.7494 6.88667 31.076 6.64 30.2494 6.64C29.4227 6.64 28.7427 6.88667 28.2094 7.38C27.676 7.86 27.4094 8.49333 27.4094 9.28C27.4094 10.0667 27.676 10.7067 28.2094 11.2C28.7427 11.68 29.4227 11.92 30.2494 11.92ZM43.3933 4.08C45.0599 4.08 46.3399 4.48 47.2333 5.28C48.1266 6.06667 48.5733 7.26 48.5733 8.86V15H45.6533V13.66C45.0666 14.66 43.9733 15.16 42.3733 15.16C41.5466 15.16 40.8266 15.02 40.2133 14.74C39.6133 14.46 39.1533 14.0733 38.8333 13.58C38.5133 13.0867 38.3533 12.5267 38.3533 11.9C38.3533 10.9 38.7266 10.1133 39.4733 9.54C40.2333 8.96667 41.3999 8.68 42.9733 8.68H45.4533C45.4533 8 45.2466 7.48 44.8333 7.12C44.4199 6.74667 43.7999 6.56 42.9733 6.56C42.3999 6.56 41.8333 6.65333 41.2733 6.84C40.7266 7.01333 40.2599 7.25333 39.8733 7.56L38.7533 5.38C39.3399 4.96667 40.0399 4.64667 40.8533 4.42C41.6799 4.19333 42.5266 4.08 43.3933 4.08ZM43.1533 13.06C43.6866 13.06 44.1599 12.94 44.5733 12.7C44.9866 12.4467 45.2799 12.08 45.4533 11.6V10.5H43.3133C42.0333 10.5 41.3933 10.92 41.3933 11.76C41.3933 12.16 41.5466 12.48 41.8533 12.72C42.1733 12.9467 42.6066 13.06 43.1533 13.06ZM51.397 0.159999H54.517V15H51.397V0.159999Z" fill="#DB0000"/>
<path d="M70.4727 0.999999V15H67.2327V9.26H60.8727V15H57.6327V0.999999H60.8727V6.52H67.2327V0.999999H70.4727ZM84.405 4.24V15H81.445V13.72C81.0317 14.1867 80.5383 14.5467 79.965 14.8C79.3917 15.04 78.7717 15.16 78.105 15.16C76.6917 15.16 75.5717 14.7533 74.745 13.94C73.9183 13.1267 73.505 11.92 73.505 10.32V4.24H76.625V9.86C76.625 11.5933 77.3517 12.46 78.805 12.46C79.5517 12.46 80.1517 12.22 80.605 11.74C81.0583 11.2467 81.285 10.52 81.285 9.56V4.24H84.405ZM93.8355 4.08C95.1688 4.08 96.2421 4.48 97.0555 5.28C97.8821 6.08 98.2955 7.26667 98.2955 8.84V15H95.1755V9.32C95.1755 8.46667 94.9888 7.83333 94.6155 7.42C94.2421 6.99333 93.7021 6.78 92.9955 6.78C92.2088 6.78 91.5821 7.02667 91.1155 7.52C90.6488 8 90.4155 8.72 90.4155 9.68V15H87.2955V4.24H90.2755V5.5C90.6888 5.04667 91.2021 4.7 91.8155 4.46C92.4288 4.20667 93.1021 4.08 93.8355 4.08ZM108.064 14.48C107.757 14.7067 107.377 14.88 106.924 15C106.484 15.1067 106.017 15.16 105.524 15.16C104.244 15.16 103.25 14.8333 102.544 14.18C101.85 13.5267 101.504 12.5667 101.504 11.3V6.88H99.8436V4.48H101.504V1.86H104.624V4.48H107.304V6.88H104.624V11.26C104.624 11.7133 104.737 12.0667 104.964 12.32C105.204 12.56 105.537 12.68 105.964 12.68C106.457 12.68 106.877 12.5467 107.224 12.28L108.064 14.48ZM120.023 9.66C120.023 9.7 120.003 9.98 119.963 10.5H111.823C111.97 11.1667 112.316 11.6933 112.863 12.08C113.41 12.4667 114.09 12.66 114.903 12.66C115.463 12.66 115.956 12.58 116.383 12.42C116.823 12.2467 117.23 11.98 117.603 11.62L119.263 13.42C118.25 14.58 116.77 15.16 114.823 15.16C113.61 15.16 112.536 14.9267 111.603 14.46C110.67 13.98 109.95 13.32 109.443 12.48C108.936 11.64 108.683 10.6867 108.683 9.62C108.683 8.56667 108.93 7.62 109.423 6.78C109.93 5.92667 110.616 5.26667 111.483 4.8C112.363 4.32 113.343 4.08 114.423 4.08C115.476 4.08 116.43 4.30667 117.283 4.76C118.136 5.21333 118.803 5.86667 119.283 6.72C119.776 7.56 120.023 8.54 120.023 9.66ZM114.443 6.44C113.736 6.44 113.143 6.64 112.663 7.04C112.183 7.44 111.89 7.98667 111.783 8.68H117.083C116.976 8 116.683 7.46 116.203 7.06C115.723 6.64667 115.136 6.44 114.443 6.44ZM125.08 5.66C125.453 5.14 125.953 4.74667 126.58 4.48C127.22 4.21333 127.953 4.08 128.78 4.08V6.96C128.433 6.93333 128.2 6.92 128.08 6.92C127.187 6.92 126.487 7.17333 125.98 7.68C125.473 8.17333 125.22 8.92 125.22 9.92V15H122.1V4.24H125.08V5.66Z" fill="black"/>
</svg>
