<svg width="14" height="14" viewBox="0 0 14 14" fill="none" xmlns="http://www.w3.org/2000/svg">
<path d="M13 6.33008L7.32667 12.1308C6.63165 12.8414 5.68899 13.2407 4.70608 13.2407C3.72317 13.2407 2.78051 12.8414 2.08549 12.1308C1.39046 11.4202 1 10.4563 1 9.45136C1 8.44638 1.39046 7.48255 2.08549 6.77192L7.37606 1.36253C7.83941 0.88794 8.46817 0.620985 9.12403 0.620393C9.77988 0.619801 10.4091 0.885621 10.8733 1.35938C11.3374 1.83313 11.5985 2.47601 11.5991 3.1466C11.5997 3.81718 11.3397 4.46053 10.8764 4.93513L5.57344 10.3445C5.34176 10.5814 5.02754 10.7145 4.69991 10.7145C4.37227 10.7145 4.05805 10.5814 3.82638 10.3445C3.5947 10.1076 3.46455 9.78636 3.46455 9.45136C3.46455 9.11637 3.5947 8.79509 3.82638 8.55821L9.06756 3.20564" fill="#CF3C3C"/>
<path d="M13 6.33008L7.32667 12.1308C6.63165 12.8414 5.68899 13.2407 4.70608 13.2407C3.72317 13.2407 2.78051 12.8414 2.08549 12.1308C1.39046 11.4202 1 10.4563 1 9.45136C1 8.44638 1.39046 7.48255 2.08549 6.77192L7.37606 1.36253C7.83941 0.88794 8.46817 0.620985 9.12403 0.620393C9.77988 0.619801 10.4091 0.885621 10.8733 1.35938C11.3374 1.83313 11.5985 2.47601 11.5991 3.1466C11.5997 3.81718 11.3397 4.46053 10.8764 4.93513L5.57344 10.3445C5.34176 10.5814 5.02754 10.7145 4.69991 10.7145C4.37227 10.7145 4.05805 10.5814 3.82638 10.3445C3.5947 10.1076 3.46455 9.78636 3.46455 9.45136C3.46455 9.11637 3.5947 8.79509 3.82638 8.55821L9.06756 3.20564" stroke="#FAFAFA" stroke-linecap="round" stroke-linejoin="round"/>
</svg>
